<?xml version="1.0" encoding="UTF-8"?>
<svg xmlns="http://www.w3.org/2000/svg" viewBox="0 0 16 16">
  <defs>
    <style>
      .cls-1 {
        fill: #f6f6f6;
      }

      .cls-2 {
        fill: #fff;
      }

      .cls-3 {
        stroke-width: .6px;
      }

      .cls-3, .cls-4 {
        fill: #1d1d1b;
      }

      .cls-3, .cls-5 {
        stroke: #1d1d1b;
        stroke-miterlimit: 10;
      }

      .cls-6 {
        fill: #36a9e1;
      }

      .cls-5 {
        fill: none;
        stroke-width: .36px;
      }
    </style>
  </defs>
  <g id="Capa_2">
    <rect class="cls-4" width="16" height="16"/>
    <circle class="cls-2" cx="8" cy="8" r="8"/>
  </g>
  <g id="Capa_1">
    <g>
      <g>
        <polygon class="cls-3" points="3.19 3.43 7.69 2.17 13.75 4.83 13.75 10.19 7.69 13.11 3.19 12.39 3.19 3.43"/>
        <polygon class="cls-1" points="13.75 4.83 13.75 10.19 12.81 10.65 12.79 5.74 11.78 5.5 11.79 11.13 10.66 11.67 10.67 5.21 9.15 4.86 9.13 12.42 7.69 13.11 7.69 2.17 13.75 4.83"/>
        <polygon class="cls-6" points="7.69 2.17 7.69 5.14 6.53 5.33 6.53 3.77 4.27 4.27 4.27 6.84 7.69 6.48 7.69 13.11 3.19 12.39 3.19 9.67 4.05 9.69 4.05 11.4 6.52 11.65 6.53 7.86 3.19 8.04 3.19 3.43 7.69 2.17"/>
      </g>
      <line class="cls-5" x1="7.69" y1="2.17" x2="7.69" y2="13.2"/>
    </g>
  </g>
</svg>